<svg width={21} height={20} viewBox="0 0 21 20" fill="none" xmlns="http://www.w3.org/2000/svg">
  <path d="M11.1666 7H9.16663V5C9.16663 4.73478 9.06127 4.48043 8.87373 4.29289C8.6862 4.10536 8.43184 4 8.16663 4C7.90141 4 7.64706 4.10536 7.45952 4.29289C7.27198 4.48043 7.16663 4.73478 7.16663 5V7H5.16663C4.90141 7 4.64706 7.10536 4.45952 7.29289C4.27198 7.48043 4.16663 7.73478 4.16663 8C4.16663 8.26522 4.27198 8.51957 4.45952 8.70711C4.64706 8.89464 4.90141 9 5.16663 9H7.16663V11C7.16663 11.2652 7.27198 11.5196 7.45952 11.7071C7.64706 11.8946 7.90141 12 8.16663 12C8.43184 12 8.6862 11.8946 8.87373 11.7071C9.06127 11.5196 9.16663 11.2652 9.16663 11V9H11.1666C11.4318 9 11.6862 8.89464 11.8737 8.70711C12.0613 8.51957 12.1666 8.26522 12.1666 8C12.1666 7.73478 12.0613 7.48043 11.8737 7.29289C11.6862 7.10536 11.4318 7 11.1666 7ZM16.1666 13V3C16.1666 2.20435 15.8506 1.44129 15.2879 0.87868C14.7253 0.316071 13.9623 0 13.1666 0H3.16663C2.37098 0 1.60791 0.316071 1.04531 0.87868C0.482697 1.44129 0.166626 2.20435 0.166626 3V13C0.166626 13.7956 0.482697 14.5587 1.04531 15.1213C1.60791 15.6839 2.37098 16 3.16663 16H13.1666C13.9623 16 14.7253 15.6839 15.2879 15.1213C15.8506 14.5587 16.1666 13.7956 16.1666 13ZM2.16663 13V3C2.16663 2.73478 2.27198 2.48043 2.45952 2.29289C2.64706 2.10536 2.90141 2 3.16663 2H13.1666C13.4318 2 13.6862 2.10536 13.8737 2.29289C14.0613 2.48043 14.1666 2.73478 14.1666 3V13C14.1666 13.2652 14.0613 13.5196 13.8737 13.7071C13.6862 13.8946 13.4318 14 13.1666 14H3.16663C2.90141 14 2.64706 13.8946 2.45952 13.7071C2.27198 13.5196 2.16663 13.2652 2.16663 13ZM19.1666 4C18.9014 4 18.6471 4.10536 18.4595 4.29289C18.272 4.48043 18.1666 4.73478 18.1666 5V15C18.1666 15.7956 17.8506 16.5587 17.2879 17.1213C16.7253 17.6839 15.9623 18 15.1666 18H5.16663C4.90141 18 4.64706 18.1054 4.45952 18.2929C4.27198 18.4804 4.16663 18.7348 4.16663 19C4.16663 19.2652 4.27198 19.5196 4.45952 19.7071C4.64706 19.8946 4.90141 20 5.16663 20H15.1666C16.4927 20 17.7645 19.4732 18.7022 18.5355C19.6398 17.5979 20.1666 16.3261 20.1666 15V5C20.1666 4.73478 20.0613 4.48043 19.8737 4.29289C19.6862 4.10536 19.4318 4 19.1666 4Z" fill="#007BFF" />
</svg>
