<svg width="58" height="15" viewBox="0 0 58 15" fill="none" xmlns="http://www.w3.org/2000/svg">
<path d="M7.63 11L6.426 7.906H2.464L1.274 11H0L3.906 0.962H5.04L8.932 11H7.63ZM4.928 3.762C4.9 3.68733 4.85333 3.552 4.788 3.356C4.72267 3.16 4.65733 2.95933 4.592 2.754C4.536 2.53933 4.48933 2.376 4.452 2.264C4.40533 2.45067 4.354 2.642 4.298 2.838C4.25133 3.02467 4.2 3.19733 4.144 3.356C4.09733 3.51467 4.05533 3.65 4.018 3.762L2.884 6.786H6.048L4.928 3.762ZM13.7434 3.356C14.6394 3.356 15.3161 3.57533 15.7734 4.014C16.2307 4.44333 16.4594 5.14333 16.4594 6.114V11H15.2414V6.198C15.2414 5.59133 15.1061 5.13867 14.8354 4.84C14.5647 4.54133 14.1401 4.392 13.5614 4.392C12.7307 4.392 12.1567 4.62533 11.8394 5.092C11.5221 5.55867 11.3634 6.23067 11.3634 7.108V11H10.1314V3.496H11.1254L11.3074 4.518H11.3774C11.5454 4.25667 11.7507 4.042 11.9934 3.874C12.2454 3.69667 12.5207 3.566 12.8194 3.482C13.1181 3.398 13.4261 3.356 13.7434 3.356ZM21.6277 3.37C22.5424 3.37 23.219 3.57067 23.6577 3.972C24.0964 4.37333 24.3157 5.01267 24.3157 5.89V11H23.4197L23.1817 9.936H23.1257C22.911 10.2067 22.687 10.4353 22.4537 10.622C22.2297 10.7993 21.9684 10.93 21.6697 11.014C21.3804 11.098 21.0257 11.14 20.6057 11.14C20.1577 11.14 19.7517 11.0607 19.3877 10.902C19.033 10.7433 18.753 10.5007 18.5477 10.174C18.3424 9.838 18.2397 9.418 18.2397 8.914C18.2397 8.16733 18.5337 7.59333 19.1217 7.192C19.7097 6.78133 20.615 6.55733 21.8377 6.52L23.1117 6.478V6.03C23.1117 5.40467 22.9764 4.97067 22.7057 4.728C22.435 4.48533 22.0524 4.364 21.5577 4.364C21.1657 4.364 20.7924 4.42467 20.4377 4.546C20.083 4.658 19.7517 4.78867 19.4437 4.938L19.0657 4.014C19.3924 3.83667 19.7797 3.68733 20.2277 3.566C20.6757 3.43533 21.1424 3.37 21.6277 3.37ZM21.9917 7.374C21.0584 7.41133 20.4097 7.56067 20.0457 7.822C19.691 8.08333 19.5137 8.452 19.5137 8.928C19.5137 9.348 19.6397 9.656 19.8917 9.852C20.153 10.048 20.4844 10.146 20.8857 10.146C21.5204 10.146 22.0477 9.97333 22.4677 9.628C22.8877 9.27333 23.0977 8.732 23.0977 8.004V7.332L21.9917 7.374ZM27.8654 11H26.6334V0.359999H27.8654V11ZM29.0667 3.496H30.3827L32.0067 7.766C32.1001 8.018 32.1841 8.26067 32.2587 8.494C32.3427 8.72733 32.4174 8.956 32.4827 9.18C32.5481 9.39467 32.5994 9.60467 32.6367 9.81H32.6927C32.7487 9.57667 32.8374 9.27333 32.9587 8.9C33.0801 8.51733 33.2061 8.13467 33.3367 7.752L34.8627 3.496H36.1927L32.9587 12.036C32.7814 12.5027 32.5714 12.9087 32.3287 13.254C32.0954 13.6087 31.8061 13.8793 31.4607 14.066C31.1247 14.262 30.7141 14.36 30.2287 14.36C30.0047 14.36 29.8087 14.346 29.6407 14.318C29.4727 14.2993 29.3281 14.276 29.2067 14.248V13.268C29.3094 13.2867 29.4307 13.3053 29.5707 13.324C29.7201 13.3427 29.8741 13.352 30.0327 13.352C30.3221 13.352 30.5694 13.296 30.7747 13.184C30.9894 13.0813 31.1714 12.9273 31.3207 12.722C31.4701 12.526 31.5961 12.2927 31.6987 12.022L32.0907 11.028L29.0667 3.496ZM39.8855 10.132C40.0721 10.132 40.2635 10.118 40.4595 10.09C40.6555 10.0527 40.8141 10.0153 40.9355 9.978V10.916C40.8048 10.9813 40.6181 11.0327 40.3755 11.07C40.1328 11.1167 39.8995 11.14 39.6755 11.14C39.2835 11.14 38.9195 11.0747 38.5835 10.944C38.2568 10.804 37.9908 10.566 37.7855 10.23C37.5801 9.894 37.4775 9.42267 37.4775 8.816V4.448H36.4135V3.86L37.4915 3.37L37.9815 1.774H38.7095V3.496H40.8795V4.448H38.7095V8.788C38.7095 9.24533 38.8168 9.586 39.0315 9.81C39.2555 10.0247 39.5401 10.132 39.8855 10.132ZM43.67 3.496V11H42.438V3.496H43.67ZM43.068 0.681999C43.2547 0.681999 43.418 0.747333 43.558 0.877999C43.7074 0.999333 43.782 1.19533 43.782 1.466C43.782 1.72733 43.7074 1.92333 43.558 2.054C43.418 2.18467 43.2547 2.25 43.068 2.25C42.8627 2.25 42.69 2.18467 42.55 2.054C42.41 1.92333 42.34 1.72733 42.34 1.466C42.34 1.19533 42.41 0.999333 42.55 0.877999C42.69 0.747333 42.8627 0.681999 43.068 0.681999ZM49.0574 11.14C48.3948 11.14 47.8021 11.0047 47.2794 10.734C46.7661 10.4633 46.3601 10.0433 46.0614 9.474C45.7721 8.90467 45.6274 8.17667 45.6274 7.29C45.6274 6.366 45.7814 5.61467 46.0894 5.036C46.3974 4.45733 46.8128 4.03267 47.3354 3.762C47.8674 3.49133 48.4694 3.356 49.1414 3.356C49.5241 3.356 49.8928 3.398 50.2474 3.482C50.6021 3.55667 50.8914 3.65 51.1154 3.762L50.7374 4.784C50.5134 4.7 50.2521 4.62067 49.9534 4.546C49.6548 4.47133 49.3748 4.434 49.1134 4.434C48.6094 4.434 48.1941 4.54133 47.8674 4.756C47.5408 4.97067 47.2981 5.288 47.1394 5.708C46.9808 6.128 46.9014 6.65067 46.9014 7.276C46.9014 7.87333 46.9808 8.382 47.1394 8.802C47.2981 9.222 47.5361 9.53933 47.8534 9.754C48.1708 9.96867 48.5674 10.076 49.0434 10.076C49.4541 10.076 49.8134 10.034 50.1214 9.95C50.4388 9.866 50.7281 9.76333 50.9894 9.642V10.734C50.7374 10.8647 50.4574 10.9627 50.1494 11.028C49.8508 11.1027 49.4868 11.14 49.0574 11.14ZM57.66 8.928C57.66 9.41333 57.5387 9.81933 57.296 10.146C57.0533 10.4727 56.708 10.72 56.26 10.888C55.812 11.056 55.28 11.14 54.664 11.14C54.1413 11.14 53.6887 11.098 53.306 11.014C52.9327 10.93 52.6013 10.8133 52.312 10.664V9.544C52.6107 9.69333 52.97 9.83333 53.39 9.964C53.8193 10.0853 54.2533 10.146 54.692 10.146C55.3173 10.146 55.77 10.048 56.05 9.852C56.33 9.64667 56.47 9.376 56.47 9.04C56.47 8.85333 56.4187 8.68533 56.316 8.536C56.2133 8.38667 56.0267 8.23733 55.756 8.088C55.4947 7.93867 55.1167 7.77067 54.622 7.584C54.1367 7.39733 53.7213 7.21067 53.376 7.024C53.0307 6.83733 52.7647 6.61333 52.578 6.352C52.3913 6.09067 52.298 5.75467 52.298 5.344C52.298 4.70933 52.5547 4.21933 53.068 3.874C53.5907 3.52867 54.272 3.356 55.112 3.356C55.5693 3.356 55.994 3.40267 56.386 3.496C56.7873 3.58 57.1607 3.70133 57.506 3.86L57.086 4.84C56.8807 4.74667 56.6613 4.66733 56.428 4.602C56.204 4.52733 55.9753 4.47133 55.742 4.434C55.5087 4.38733 55.2707 4.364 55.028 4.364C54.524 4.364 54.1367 4.448 53.866 4.616C53.6047 4.77467 53.474 4.994 53.474 5.274C53.474 5.47933 53.5347 5.65667 53.656 5.806C53.7773 5.946 53.978 6.086 54.258 6.226C54.5473 6.35667 54.93 6.51533 55.406 6.702C55.882 6.87933 56.288 7.06133 56.624 7.248C56.96 7.43467 57.2167 7.66333 57.394 7.934C57.5713 8.19533 57.66 8.52667 57.66 8.928Z" fill="#535353"/>
</svg>
