<svg width={21} height={21} viewBox="0 0 21 21" fill="none" xmlns="http://www.w3.org/2000/svg">
  <path d="M20.1666 5.24002C20.1674 5.10841 20.1422 4.97795 20.0924 4.85611C20.0427 4.73427 19.9693 4.62346 19.8766 4.53002L15.6366 0.290017C15.5432 0.197335 15.4324 0.12401 15.3105 0.0742455C15.1887 0.0244809 15.0583 -0.000744179 14.9266 1.67143e-05C14.795 -0.000744179 14.6646 0.0244809 14.5427 0.0742455C14.4209 0.12401 14.3101 0.197335 14.2166 0.290017L11.3866 3.12002L0.456643 14.05C0.363961 14.1435 0.290636 14.2543 0.240871 14.3761C0.191107 14.4979 0.165882 14.6284 0.166643 14.76V19C0.166643 19.2652 0.271999 19.5196 0.459536 19.7071C0.647072 19.8947 0.901426 20 1.16664 20H5.40664C5.54657 20.0076 5.68654 19.9857 5.81746 19.9358C5.94839 19.8858 6.06735 19.8089 6.16664 19.71L17.0366 8.78002L19.8766 6.00002C19.9679 5.9031 20.0423 5.79155 20.0966 5.67002C20.1063 5.59031 20.1063 5.50973 20.0966 5.43002C20.1013 5.38347 20.1013 5.33657 20.0966 5.29002L20.1666 5.24002ZM4.99664 18H2.16664V15.17L12.0966 5.24002L14.9266 8.07002L4.99664 18ZM16.3366 6.66002L13.5066 3.83002L14.9266 2.42002L17.7466 5.24002L16.3366 6.66002Z" fill="#007BFF" />
</svg>
