<svg width={18} height={21} viewBox="0 0 18 21" fill="none" xmlns="http://www.w3.org/2000/svg">
  <path d="M17 6.50001L11 1.24001C10.45 0.748051 9.73794 0.476074 9 0.476074C8.26207 0.476074 7.55003 0.748051 7 1.24001L1 6.50001C0.682372 6.78408 0.428903 7.13256 0.256475 7.52225C0.084047 7.91194 -0.00338411 8.33389 3.24138e-06 8.76001V17.5C3.24138e-06 18.2957 0.316074 19.0587 0.878683 19.6213C1.44129 20.1839 2.20435 20.5 3 20.5H15C15.7957 20.5 16.5587 20.1839 17.1213 19.6213C17.6839 19.0587 18 18.2957 18 17.5V8.75001C18.002 8.32557 17.9139 7.90555 17.7415 7.51769C17.5691 7.12983 17.3164 6.78296 17 6.50001ZM11 18.5H7V13.5C7 13.2348 7.10536 12.9804 7.2929 12.7929C7.48043 12.6054 7.73479 12.5 8 12.5H10C10.2652 12.5 10.5196 12.6054 10.7071 12.7929C10.8946 12.9804 11 13.2348 11 13.5V18.5ZM16 17.5C16 17.7652 15.8946 18.0196 15.7071 18.2071C15.5196 18.3946 15.2652 18.5 15 18.5H13V13.5C13 12.7044 12.6839 11.9413 12.1213 11.3787C11.5587 10.8161 10.7957 10.5 10 10.5H8C7.20435 10.5 6.44129 10.8161 5.87868 11.3787C5.31607 11.9413 5 12.7044 5 13.5V18.5H3C2.73479 18.5 2.48043 18.3946 2.2929 18.2071C2.10536 18.0196 2 17.7652 2 17.5V8.75001C2.00018 8.60802 2.0306 8.4677 2.08922 8.33839C2.14784 8.20907 2.23333 8.09372 2.34 8.00001L8.34 2.75001C8.52249 2.58969 8.7571 2.50127 9 2.50127C9.24291 2.50127 9.47751 2.58969 9.66 2.75001L15.66 8.00001C15.7667 8.09372 15.8522 8.20907 15.9108 8.33839C15.9694 8.4677 15.9998 8.60802 16 8.75001V17.5Z" fill="#E21A22" />
</svg>

