<svg width={18} height={21} viewBox="0 0 18 21" fill="none" xmlns="http://www.w3.org/2000/svg">
  <path d="M15 6.00004H14.65C14.8782 5.5328 14.9979 5.02002 15 4.50004C15.003 3.80336 14.7975 3.12173 14.4098 2.54287C14.0221 1.96401 13.4701 1.51442 12.8247 1.25198C12.1794 0.989531 11.4703 0.92624 10.7886 1.07025C10.107 1.21426 9.48405 1.55898 9 2.06004C8.51595 1.55898 7.89302 1.21426 7.21138 1.07025C6.52975 0.92624 5.82061 0.989531 5.17525 1.25198C4.5299 1.51442 3.97786 1.96401 3.59019 2.54287C3.20252 3.12173 2.99697 3.80336 3 4.50004C3.00213 5.02002 3.12178 5.5328 3.35 6.00004H3C2.20435 6.00004 1.44129 6.31611 0.87868 6.87872C0.316071 7.44133 0 8.20439 0 9.00004V11C0 11.2653 0.105357 11.5196 0.292893 11.7071C0.48043 11.8947 0.734784 12 1 12H2V18C2 18.7957 2.31607 19.5588 2.87868 20.1214C3.44129 20.684 4.20435 21 5 21H13C13.7956 21 14.5587 20.684 15.1213 20.1214C15.6839 19.5588 16 18.7957 16 18V12H17C17.2652 12 17.5196 11.8947 17.7071 11.7071C17.8946 11.5196 18 11.2653 18 11V9.00004C18 8.20439 17.6839 7.44133 17.1213 6.87872C16.5587 6.31611 15.7956 6.00004 15 6.00004ZM8 19H5C4.73478 19 4.48043 18.8947 4.29289 18.7071C4.10536 18.5196 4 18.2653 4 18V12H8V19ZM8 10H2V9.00004C2 8.73482 2.10536 8.48047 2.29289 8.29293C2.48043 8.10539 2.73478 8.00004 3 8.00004H8V10ZM8 6.00004H6.5C6.20333 6.00004 5.91332 5.91206 5.66665 5.74724C5.41997 5.58242 5.22771 5.34815 5.11418 5.07406C5.00065 4.79997 4.97094 4.49837 5.02882 4.2074C5.0867 3.91643 5.22956 3.64916 5.43934 3.43938C5.64912 3.2296 5.91639 3.08674 6.20736 3.02886C6.49834 2.97098 6.79994 3.00069 7.07403 3.11422C7.34811 3.22775 7.58238 3.42001 7.7472 3.66668C7.91203 3.91336 8 4.20337 8 4.50004V6.00004ZM10 4.50004C10 4.20337 10.088 3.91336 10.2528 3.66668C10.4176 3.42001 10.6519 3.22775 10.926 3.11422C11.2001 3.00069 11.5017 2.97098 11.7926 3.02886C12.0836 3.08674 12.3509 3.2296 12.5607 3.43938C12.7704 3.64916 12.9133 3.91643 12.9712 4.2074C13.0291 4.49837 12.9994 4.79997 12.8858 5.07406C12.7723 5.34815 12.58 5.58242 12.3334 5.74724C12.0867 5.91206 11.7967 6.00004 11.5 6.00004H10V4.50004ZM14 18C14 18.2653 13.8946 18.5196 13.7071 18.7071C13.5196 18.8947 13.2652 19 13 19H10V12H14V18ZM16 10H10V8.00004H15C15.2652 8.00004 15.5196 8.10539 15.7071 8.29293C15.8946 8.48047 16 8.73482 16 9.00004V10Z" fill="black" />
</svg>
