<svg width="107" height="15" viewBox="0 0 107 15" fill="none" xmlns="http://www.w3.org/2000/svg">
<path d="M3.116 1.004C3.94667 1.004 4.628 1.11133 5.16 1.326C5.70133 1.53133 6.10267 1.844 6.364 2.264C6.62533 2.684 6.756 3.21133 6.756 3.846C6.756 4.378 6.658 4.82133 6.462 5.176C6.266 5.53067 6.014 5.81533 5.706 6.03C5.40733 6.23533 5.09 6.39867 4.754 6.52L7.498 11H6.028L3.606 6.87H1.618V11H0.358V1.004H3.116ZM3.046 2.096H1.618V5.806H3.116C3.65733 5.806 4.10067 5.736 4.446 5.596C4.79133 5.44667 5.04333 5.232 5.202 4.952C5.37 4.672 5.454 4.322 5.454 3.902C5.454 3.46333 5.36533 3.11333 5.188 2.852C5.02 2.59067 4.75867 2.39933 4.404 2.278C4.04933 2.15667 3.59667 2.096 3.046 2.096ZM11.797 3.356C12.441 3.356 12.9917 3.496 13.449 3.776C13.9157 4.056 14.2703 4.45267 14.513 4.966C14.765 5.47 14.891 6.06267 14.891 6.744V7.486H9.75298C9.77165 8.33533 9.98632 8.984 10.397 9.432C10.817 9.87067 11.4003 10.09 12.147 10.09C12.623 10.09 13.043 10.048 13.407 9.964C13.7803 9.87067 14.163 9.74 14.555 9.572V10.65C14.1723 10.818 13.7943 10.9393 13.421 11.014C13.0477 11.098 12.6043 11.14 12.091 11.14C11.3817 11.14 10.7517 10.9953 10.201 10.706C9.65965 10.4167 9.23498 9.98733 8.92698 9.418C8.62832 8.83933 8.47898 8.13467 8.47898 7.304C8.47898 6.48267 8.61432 5.778 8.88498 5.19C9.16498 4.602 9.55232 4.14933 10.047 3.832C10.551 3.51467 11.1343 3.356 11.797 3.356ZM11.783 4.364C11.195 4.364 10.7283 4.55533 10.383 4.938C10.047 5.31133 9.84632 5.834 9.78098 6.506H13.603C13.603 6.07667 13.5377 5.70333 13.407 5.386C13.2763 5.06867 13.0757 4.82133 12.805 4.644C12.5437 4.45733 12.203 4.364 11.783 4.364ZM19.4613 11.14C18.528 11.14 17.7813 10.818 17.2213 10.174C16.6613 9.52067 16.3813 8.55 16.3813 7.262C16.3813 5.974 16.6613 5.00333 17.2213 4.35C17.7907 3.68733 18.542 3.356 19.4753 3.356C19.8673 3.356 20.208 3.40733 20.4973 3.51C20.7867 3.60333 21.0387 3.734 21.2533 3.902C21.468 4.07 21.65 4.25667 21.7993 4.462H21.8833C21.874 4.34067 21.8553 4.16333 21.8273 3.93C21.8087 3.68733 21.7993 3.496 21.7993 3.356V0.359999H23.0313V11H22.0373L21.8553 9.992H21.7993C21.65 10.2067 21.468 10.4027 21.2533 10.58C21.0387 10.748 20.782 10.8833 20.4833 10.986C20.194 11.0887 19.8533 11.14 19.4613 11.14ZM19.6573 10.118C20.4507 10.118 21.006 9.90333 21.3233 9.474C21.65 9.03533 21.8133 8.37733 21.8133 7.5V7.276C21.8133 6.34267 21.6593 5.62867 21.3513 5.134C21.0433 4.63 20.474 4.378 19.6433 4.378C18.9807 4.378 18.4813 4.644 18.1453 5.176C17.8187 5.69867 17.6553 6.40333 17.6553 7.29C17.6553 8.186 17.8187 8.88133 18.1453 9.376C18.4813 9.87067 18.9853 10.118 19.6573 10.118ZM28.3126 3.356C28.9566 3.356 29.5073 3.496 29.9646 3.776C30.4313 4.056 30.7859 4.45267 31.0286 4.966C31.2806 5.47 31.4066 6.06267 31.4066 6.744V7.486H26.2686C26.2873 8.33533 26.5019 8.984 26.9126 9.432C27.3326 9.87067 27.9159 10.09 28.6626 10.09C29.1386 10.09 29.5586 10.048 29.9226 9.964C30.2959 9.87067 30.6786 9.74 31.0706 9.572V10.65C30.6879 10.818 30.3099 10.9393 29.9366 11.014C29.5633 11.098 29.1199 11.14 28.6066 11.14C27.8973 11.14 27.2673 10.9953 26.7166 10.706C26.1753 10.4167 25.7506 9.98733 25.4426 9.418C25.1439 8.83933 24.9946 8.13467 24.9946 7.304C24.9946 6.48267 25.1299 5.778 25.4006 5.19C25.6806 4.602 26.0679 4.14933 26.5626 3.832C27.0666 3.51467 27.6499 3.356 28.3126 3.356ZM28.2986 4.364C27.7106 4.364 27.2439 4.55533 26.8986 4.938C26.5626 5.31133 26.3619 5.834 26.2966 6.506H30.1186C30.1186 6.07667 30.0533 5.70333 29.9226 5.386C29.7919 5.06867 29.5913 4.82133 29.3206 4.644C29.0593 4.45733 28.7186 4.364 28.2986 4.364ZM41.549 3.356C42.3983 3.356 43.033 3.57533 43.453 4.014C43.873 4.44333 44.083 5.14333 44.083 6.114V11H42.865V6.17C42.865 5.582 42.739 5.13867 42.487 4.84C42.2443 4.54133 41.8616 4.392 41.339 4.392C40.611 4.392 40.0883 4.602 39.771 5.022C39.463 5.442 39.309 6.05333 39.309 6.856V11H38.091V6.17C38.091 5.778 38.035 5.45133 37.923 5.19C37.811 4.91933 37.643 4.71867 37.419 4.588C37.195 4.45733 36.9056 4.392 36.551 4.392C36.047 4.392 35.6503 4.49933 35.361 4.714C35.0716 4.91933 34.8616 5.22267 34.731 5.624C34.6096 6.02533 34.549 6.52 34.549 7.108V11H33.317V3.496H34.311L34.493 4.518H34.563C34.7216 4.25667 34.913 4.042 35.137 3.874C35.3703 3.69667 35.627 3.566 35.907 3.482C36.187 3.398 36.4763 3.356 36.775 3.356C37.3536 3.356 37.8343 3.45867 38.217 3.664C38.609 3.86933 38.8936 4.18667 39.071 4.616H39.141C39.393 4.18667 39.7336 3.86933 40.163 3.664C40.6016 3.45867 41.0636 3.356 41.549 3.356ZM49.9709 3.356C50.8949 3.356 51.6369 3.678 52.1969 4.322C52.7663 4.966 53.0509 5.93667 53.0509 7.234C53.0509 8.08333 52.9203 8.802 52.6589 9.39C52.4069 9.96867 52.0476 10.4073 51.5809 10.706C51.1236 10.9953 50.5823 11.14 49.9569 11.14C49.5743 11.14 49.2336 11.0887 48.9349 10.986C48.6363 10.8833 48.3796 10.7527 48.1649 10.594C47.9596 10.426 47.7823 10.244 47.6329 10.048H47.5489C47.5676 10.2067 47.5863 10.4073 47.6049 10.65C47.6236 10.8927 47.6329 11.1027 47.6329 11.28V14.36H46.4009V3.496H47.4089L47.5769 4.518H47.6329C47.7823 4.30333 47.9596 4.10733 48.1649 3.93C48.3796 3.75267 48.6316 3.61267 48.9209 3.51C49.2196 3.40733 49.5696 3.356 49.9709 3.356ZM49.7469 4.392C49.2429 4.392 48.8369 4.49 48.5289 4.686C48.2209 4.87267 47.9969 5.15733 47.8569 5.54C47.7169 5.92267 47.6423 6.408 47.6329 6.996V7.234C47.6329 7.85 47.6983 8.37267 47.8289 8.802C47.9596 9.23133 48.1789 9.558 48.4869 9.782C48.8043 10.006 49.2336 10.118 49.7749 10.118C50.2323 10.118 50.6056 9.992 50.8949 9.74C51.1936 9.488 51.4129 9.14733 51.5529 8.718C51.7023 8.27933 51.7769 7.78 51.7769 7.22C51.7769 6.36133 51.6089 5.67533 51.2729 5.162C50.9463 4.64867 50.4376 4.392 49.7469 4.392ZM57.5202 10.132C57.7069 10.132 57.8982 10.118 58.0942 10.09C58.2902 10.0527 58.4489 10.0153 58.5702 9.978V10.916C58.4396 10.9813 58.2529 11.0327 58.0102 11.07C57.7676 11.1167 57.5342 11.14 57.3102 11.14C56.9182 11.14 56.5542 11.0747 56.2182 10.944C55.8916 10.804 55.6256 10.566 55.4202 10.23C55.2149 9.894 55.1122 9.42267 55.1122 8.816V4.448H54.0482V3.86L55.1262 3.37L55.6162 1.774H56.3442V3.496H58.5142V4.448H56.3442V8.788C56.3442 9.24533 56.4516 9.586 56.6662 9.81C56.8902 10.0247 57.1749 10.132 57.5202 10.132ZM61.3048 3.496V11H60.0728V3.496H61.3048ZM60.7028 0.681999C60.8895 0.681999 61.0528 0.747333 61.1928 0.877999C61.3421 0.999333 61.4168 1.19533 61.4168 1.466C61.4168 1.72733 61.3421 1.92333 61.1928 2.054C61.0528 2.18467 60.8895 2.25 60.7028 2.25C60.4975 2.25 60.3248 2.18467 60.1848 2.054C60.0448 1.92333 59.9748 1.72733 59.9748 1.466C59.9748 1.19533 60.0448 0.999333 60.1848 0.877999C60.3248 0.747333 60.4975 0.681999 60.7028 0.681999ZM70.2062 7.234C70.2062 7.85933 70.1222 8.41467 69.9542 8.9C69.7955 9.376 69.5622 9.782 69.2542 10.118C68.9555 10.454 68.5869 10.7107 68.1482 10.888C67.7189 11.056 67.2382 11.14 66.7062 11.14C66.2115 11.14 65.7542 11.056 65.3342 10.888C64.9142 10.7107 64.5502 10.454 64.2422 10.118C63.9342 9.782 63.6915 9.376 63.5142 8.9C63.3462 8.41467 63.2622 7.85933 63.2622 7.234C63.2622 6.40333 63.4022 5.70333 63.6822 5.134C63.9622 4.55533 64.3635 4.11667 64.8862 3.818C65.4089 3.51 66.0295 3.356 66.7482 3.356C67.4295 3.356 68.0269 3.51 68.5402 3.818C69.0629 4.11667 69.4689 4.55533 69.7582 5.134C70.0569 5.70333 70.2062 6.40333 70.2062 7.234ZM64.5362 7.234C64.5362 7.822 64.6109 8.33533 64.7602 8.774C64.9189 9.20333 65.1615 9.53467 65.4882 9.768C65.8149 10.0013 66.2302 10.118 66.7342 10.118C67.2382 10.118 67.6535 10.0013 67.9802 9.768C68.3069 9.53467 68.5449 9.20333 68.6942 8.774C68.8529 8.33533 68.9322 7.822 68.9322 7.234C68.9322 6.63667 68.8529 6.128 68.6942 5.708C68.5355 5.288 68.2929 4.966 67.9662 4.742C67.6489 4.50867 67.2335 4.392 66.7202 4.392C65.9549 4.392 65.3995 4.644 65.0542 5.148C64.7089 5.652 64.5362 6.34733 64.5362 7.234ZM75.7708 3.356C76.6668 3.356 77.3434 3.57533 77.8008 4.014C78.2581 4.44333 78.4868 5.14333 78.4868 6.114V11H77.2688V6.198C77.2688 5.59133 77.1334 5.13867 76.8628 4.84C76.5921 4.54133 76.1674 4.392 75.5888 4.392C74.7581 4.392 74.1841 4.62533 73.8668 5.092C73.5494 5.55867 73.3908 6.23067 73.3908 7.108V11H72.1588V3.496H73.1528L73.3348 4.518H73.4048C73.5728 4.25667 73.7781 4.042 74.0208 3.874C74.2728 3.69667 74.5481 3.566 74.8468 3.482C75.1454 3.398 75.4534 3.356 75.7708 3.356ZM84.6178 11V1.004H85.8778V9.88H90.2458V11H84.6178ZM98.3156 7.234C98.3156 7.85933 98.2316 8.41467 98.0636 8.9C97.9049 9.376 97.6716 9.782 97.3636 10.118C97.0649 10.454 96.6962 10.7107 96.2576 10.888C95.8282 11.056 95.3476 11.14 94.8156 11.14C94.3209 11.14 93.8636 11.056 93.4436 10.888C93.0236 10.7107 92.6596 10.454 92.3516 10.118C92.0436 9.782 91.8009 9.376 91.6236 8.9C91.4556 8.41467 91.3716 7.85933 91.3716 7.234C91.3716 6.40333 91.5116 5.70333 91.7916 5.134C92.0716 4.55533 92.4729 4.11667 92.9956 3.818C93.5182 3.51 94.1389 3.356 94.8576 3.356C95.5389 3.356 96.1362 3.51 96.6496 3.818C97.1722 4.11667 97.5782 4.55533 97.8676 5.134C98.1662 5.70333 98.3156 6.40333 98.3156 7.234ZM92.6456 7.234C92.6456 7.822 92.7202 8.33533 92.8696 8.774C93.0282 9.20333 93.2709 9.53467 93.5976 9.768C93.9242 10.0013 94.3396 10.118 94.8436 10.118C95.3476 10.118 95.7629 10.0013 96.0896 9.768C96.4162 9.53467 96.6542 9.20333 96.8036 8.774C96.9622 8.33533 97.0416 7.822 97.0416 7.234C97.0416 6.63667 96.9622 6.128 96.8036 5.708C96.6449 5.288 96.4022 4.966 96.0756 4.742C95.7582 4.50867 95.3429 4.392 94.8296 4.392C94.0642 4.392 93.5089 4.644 93.1636 5.148C92.8182 5.652 92.6456 6.34733 92.6456 7.234ZM102.928 3.356C103.423 3.356 103.866 3.44933 104.258 3.636C104.659 3.82267 105 4.10733 105.28 4.49H105.35L105.518 3.496H106.498V11.126C106.498 11.8353 106.377 12.428 106.134 12.904C105.891 13.3893 105.523 13.7533 105.028 13.996C104.533 14.2387 103.903 14.36 103.138 14.36C102.597 14.36 102.097 14.318 101.64 14.234C101.192 14.1593 100.791 14.0427 100.436 13.884V12.75C100.679 12.8713 100.945 12.974 101.234 13.058C101.523 13.1513 101.836 13.2213 102.172 13.268C102.508 13.3147 102.853 13.338 103.208 13.338C103.852 13.338 104.356 13.1467 104.72 12.764C105.093 12.3907 105.28 11.8773 105.28 11.224V10.93C105.28 10.818 105.285 10.6593 105.294 10.454C105.303 10.2393 105.313 10.09 105.322 10.006H105.266C105.005 10.3887 104.678 10.6733 104.286 10.86C103.903 11.0467 103.455 11.14 102.942 11.14C101.971 11.14 101.211 10.7993 100.66 10.118C100.119 9.43667 99.8481 8.48467 99.8481 7.262C99.8481 6.45933 99.9695 5.76867 100.212 5.19C100.464 4.602 100.819 4.14933 101.276 3.832C101.733 3.51467 102.284 3.356 102.928 3.356ZM103.096 4.392C102.676 4.392 102.317 4.504 102.018 4.728C101.729 4.952 101.505 5.27867 101.346 5.708C101.197 6.13733 101.122 6.66 101.122 7.276C101.122 8.2 101.29 8.90933 101.626 9.404C101.971 9.88933 102.471 10.132 103.124 10.132C103.507 10.132 103.833 10.0853 104.104 9.992C104.375 9.88933 104.599 9.73533 104.776 9.53C104.953 9.31533 105.084 9.04467 105.168 8.718C105.252 8.39133 105.294 8.004 105.294 7.556V7.262C105.294 6.58067 105.215 6.03 105.056 5.61C104.907 5.19 104.669 4.882 104.342 4.686C104.015 4.49 103.6 4.392 103.096 4.392Z" fill="#535353"/>
</svg>
