<svg width={19} height={4} viewBox="0 0 19 4" fill="none" xmlns="http://www.w3.org/2000/svg">
  <path d="M9.16663 0C8.06663 0 7.16663 0.9 7.16663 2C7.16663 3.1 8.06663 4 9.16663 4C10.2666 4 11.1666 3.1 11.1666 2C11.1666 0.9 10.2666 0 9.16663 0ZM2.16663 0C1.06663 0 0.166626 0.9 0.166626 2C0.166626 3.1 1.06663 4 2.16663 4C3.26663 4 4.16663 3.1 4.16663 2C4.16663 0.9 3.26663 0 2.16663 0ZM16.1666 0C15.0666 0 14.1666 0.9 14.1666 2C14.1666 3.1 15.0666 4 16.1666 4C17.2666 4 18.1666 3.1 18.1666 2C18.1666 0.9 17.2666 0 16.1666 0Z" fill="#959595" />
</svg>
